<?xml version="1.0" encoding="UTF-8"?>
<!DOCTYPE svg PUBLIC "-//W3C//DTD SVG 1.1//EN" "http://www.w3.org/Graphics/SVG/1.1/DTD/svg11.dtd">
<svg version="1.1" xmlns="http://www.w3.org/2000/svg" xmlns:xlink="http://www.w3.org/1999/xlink" x="0" y="0" width="125" height="35.598" viewBox="0, 0, 125, 35.598">
  <defs>
    <linearGradient id="Gradient_1" gradientUnits="userSpaceOnUse" x1="60.077" y1="41.138" x2="132.621" y2="41.138" gradientTransform="matrix(1, 0, 0, 1, -27.35, -21.95)">
      <stop offset="0" stop-color="#2A88AF"/>
      <stop offset="0.1" stop-color="#2C8FB5"/>
      <stop offset="0.23" stop-color="#31A2C4"/>
      <stop offset="0.39" stop-color="#3AC0DE"/>
      <stop offset="0.49" stop-color="#40D6F0"/>
      <stop offset="1" stop-color="#80E3F5"/>
    </linearGradient>
  </defs>
  <g id="Layer_1">
    <path d="M1.816,6.298 L5.454,6.298 L7.271,3.149 L5.454,0 L1.816,0 L0,3.149 L1.816,6.298 z" fill="#7F3FFF"/>
    <path d="M0.736,27.874 L0.736,8.835 L6.54,8.835 L6.54,27.874 z" fill="#0D6796"/>
    <path d="M28.883,27.874 L23.079,27.874 L23.079,17.176 C23.079,15.916 22.847,15.005 22.374,14.434 C21.917,13.875 21.227,13.561 20.506,13.585 C20.081,13.586 19.662,13.672 19.271,13.837 C18.842,14.017 18.44,14.256 18.077,14.547 C17.684,14.852 17.337,15.212 17.048,15.617 C16.744,16.024 16.505,16.476 16.338,16.955 L16.338,27.874 L10.528,27.874 L10.528,8.835 L15.772,8.835 L15.772,12.031 C16.485,10.883 17.519,9.968 18.746,9.401 C20.132,8.761 21.645,8.445 23.171,8.475 C24.205,8.426 25.232,8.657 26.145,9.144 C26.869,9.564 27.47,10.165 27.89,10.888 C28.305,11.609 28.581,12.402 28.703,13.225 C28.834,14.041 28.901,14.867 28.904,15.694 z" fill="#0D6796"/>
    <path d="M44.809,13.801 C43.509,13.805 42.22,14.039 41.001,14.49 C39.974,14.835 39.1,15.529 38.531,16.451 L38.531,27.874 L32.753,27.874 L32.753,8.835 L38.089,8.835 L38.089,12.684 C38.667,11.488 39.531,10.452 40.605,9.669 C41.56,8.97 42.705,8.579 43.888,8.547 L44.469,8.547 C44.592,8.546 44.715,8.558 44.835,8.583 z M53.006,28.24 Q50.063,28.24 48.56,26.408 Q47.058,24.576 47.058,21.02 L47.058,8.83 L52.862,8.83 L52.862,19.749 C52.8,20.688 53.04,21.622 53.546,22.415 C54.005,23.031 54.74,23.378 55.507,23.341 C56.298,23.336 57.073,23.123 57.756,22.724 C58.581,22.21 59.247,21.478 59.68,20.609 L59.68,8.83 L65.485,8.83 L65.485,21.344 C65.444,21.767 65.538,22.192 65.752,22.559 C66.003,22.822 66.35,22.972 66.714,22.976 L66.714,27.874 C66.247,27.98 65.775,28.059 65.299,28.111 C64.913,28.147 64.563,28.163 64.27,28.163 C62.212,28.163 61.003,27.355 60.714,25.734 L60.606,24.576 C59.797,25.779 58.674,26.738 57.359,27.35 C55.99,27.96 54.505,28.264 53.006,28.24 z M82.023,28.24 C80.707,28.273 79.406,27.959 78.251,27.329 C77.2,26.74 76.342,25.859 75.781,24.792 L75.781,35.598 L69.982,35.598 L69.982,8.84 L75.02,8.84 L75.02,11.928 C75.68,10.884 76.582,10.014 77.649,9.391 C78.8,8.764 80.095,8.452 81.405,8.485 C82.626,8.471 83.834,8.732 84.941,9.247 C86,9.739 86.951,10.439 87.735,11.305 C88.54,12.221 89.168,13.278 89.587,14.423 C90.038,15.662 90.265,16.97 90.256,18.288 C90.27,19.63 90.061,20.966 89.639,22.24 C89.266,23.381 88.689,24.444 87.935,25.379 C87.221,26.244 86.33,26.946 85.321,27.437 C84.301,27.962 83.17,28.237 82.023,28.24 z M80.062,23.341 C80.663,23.348 81.255,23.205 81.786,22.924 C82.305,22.645 82.766,22.27 83.145,21.818 C83.543,21.342 83.846,20.793 84.035,20.202 C84.242,19.576 84.347,18.921 84.344,18.262 C84.351,17.6 84.234,16.942 83.999,16.322 C83.782,15.754 83.463,15.231 83.057,14.779 C82.652,14.336 82.157,13.985 81.606,13.749 C81.026,13.506 80.403,13.384 79.774,13.389 C78.954,13.395 78.152,13.64 77.469,14.094 C76.74,14.559 76.155,15.218 75.781,15.998 L75.781,19.914 C76.148,20.863 76.745,21.705 77.52,22.363 C78.221,22.986 79.125,23.333 80.062,23.341 z M105.276,26.861 C104.384,27.237 103.468,27.555 102.534,27.813 C101.529,28.099 100.491,28.246 99.446,28.25 C98.751,28.254 98.058,28.162 97.388,27.977 C96.772,27.805 96.198,27.509 95.7,27.108 C95.197,26.681 94.805,26.139 94.558,25.528 C94.262,24.778 94.121,23.977 94.141,23.171 L94.141,13.219 L91.712,13.219 L91.712,8.83 L94.141,8.83 L94.141,2.774 L99.945,2.774 L99.945,8.83 L103.825,8.83 L103.825,13.219 L99.945,13.219 L99.945,21.164 C99.872,21.635 100.02,22.112 100.345,22.459 C100.671,22.806 101.139,22.983 101.613,22.94 C102.069,22.937 102.522,22.864 102.956,22.724 C103.367,22.597 103.768,22.439 104.155,22.25 z" fill="url(#Gradient_1)"/>
    <g>
      <path d="M122.281,2.515 L118.844,2.515 L117.125,5.49 L118.844,8.469 L122.281,8.469 L124,5.49 L122.281,2.515 z" fill-opacity="0" stroke="#1CD5EB" stroke-width="0.515"/>
    </g>
    <g>
      <path d="M121.686,15.557 L118.881,16.299 L118.125,19.097 L120.173,21.152 L122.972,20.404 L123.728,17.611 L121.686,15.557 z" fill-opacity="0" stroke="#1CD5EB" stroke-width="0.515"/>
    </g>
    <g>
      <path d="M109.665,3.154 L108.389,3.628 L108.157,4.971 L109.207,5.84 L110.483,5.367 L110.715,4.024 L109.665,3.154 z" fill-opacity="0" stroke="#1CD5EB" stroke-width="0.515"/>
    </g>
    <g>
      <path d="M108.102,21.921 L106.867,21.921 L106.254,22.986 L106.867,24.051 L108.102,24.051 L108.719,22.986 L108.102,21.921 z" fill-opacity="0" stroke="#1CD5EB" stroke-width="0.515"/>
    </g>
    <g>
      <path d="M114.904,24.55 L114.034,25.425 L114.353,26.614 L115.542,26.933 L116.417,26.058 L116.098,24.869 L114.904,24.55 z" fill-opacity="0" stroke="#1CD5EB" stroke-width="0.515"/>
    </g>
    <g>
      <path d="M112.388,17.439 L110.957,17.989 L110.715,19.507 L111.909,20.47 L113.34,19.919 L113.576,18.401 L112.388,17.439 z" fill-opacity="0" stroke="#1CD5EB" stroke-width="0.515"/>
    </g>
    <g>
      <path d="M116.648,12.463 L115.208,11.938 L114.034,12.926 L114.307,14.439 L115.748,14.959 L116.921,13.971 L116.648,12.463 z" fill-opacity="0" stroke="#1CD5EB" stroke-width="0.515"/>
    </g>
    <g>
      <path d="M111.657,8.835 L110.623,8.954 L110.206,9.911 L110.829,10.745 L111.863,10.626 L112.275,9.674 L111.657,8.835 z" fill-opacity="0" stroke="#1CD5EB" stroke-width="0.515"/>
    </g>
    <g>
      <path d="M107.86,13.564 L107.057,13.101 L106.254,13.564 L106.254,14.496 L107.057,14.959 L107.86,14.496 L107.86,13.564 z" fill-opacity="0" stroke="#1CD5EB" stroke-width="0.515"/>
    </g>
  </g>
</svg>
